# xmcd
#
# Track frame offsets:
#   150
#   24256
#   40307
#   68261
#   84495
#   100024
#   127095
#   141420
#   162932
#   182280
#
# Disc length: 2759 seconds
#
# Revision: 0
# Processed by: cddbd v1.5.1PL2 Copyright (c) Steve Scherf et al.
# Submitted via: GXTranscoder 2.0.1939
#
DISCID=760ac50a
DTITLE=blue stift - the soest brothers
DYEAR=1900
DGENRE=Blues
TTITLE0=could work out fine
TTITLE1=what do i care
TTITLE2=you just can't help it
TTITLE3=next to none and 2nd best
TTITLE4=(...if you want to) rock'n roll
TTITLE5=blind date with juliana
TTITLE6=it don't mean a thing
TTITLE7=what is love
TTITLE8=basically blue
TTITLE9=what went wrong
EXTD=
EXTT0=
EXTT1=
EXTT2=
EXTT3=
EXTT4=
EXTT5=
EXTT6=
EXTT7=
EXTT8=
EXTT9=
PLAYORDER=
